<svg id="Layer_2" data-name="Layer 2" xmlns="http://www.w3.org/2000/svg" viewBox="0 0 1000.00006 1000">
                    <defs>
                      <style>
                        .cls-9, .cls-8 {
                          stroke-width: 0px;
                        }
                  
                        .cls-8 {
                          fill: #fff;
                        }
                      </style>
                    </defs>
                    <rect class="cls-9" x="33.27271" y="42.37608" width="716.95953" height="934.44814" rx="110.33425" ry="110.33425"/>
                    <path class="cls-8" d="m499.90857,34.28397h398.23492c37.19336,0,67.38965,30.19627,67.38965,67.38961v780.42535c0,46.04865-37.38562,83.43427-83.4342,83.43427h-382.19031V34.28397h-.00006Z"/>
                    <path class="cls-8" d="m819.48456,48.99999c35.12903,0,68.15552,13.68,92.99548,38.52,24.84009,24.84,38.52002,57.86652,38.52002,92.99551v638.96875c0,35.12927-13.67993,68.15576-38.52002,92.99573-24.83997,24.84003-57.86646,38.52002-92.99548,38.52002H180.51575c-35.12924,0-68.15576-13.67999-92.99576-38.52002-24.84-24.83997-38.51999-57.86646-38.51999-92.99573V180.51551c0-35.129,13.67999-68.1555,38.51999-92.99551,24.84-24.84,57.86652-38.52,92.99576-38.52h638.96881m0-49H180.51575C80.81952,0,0,80.81951,0,180.51551v638.96875c0,99.69623,80.81952,180.51575,180.51575,180.51575h638.96881c99.69592,0,180.5155-80.81952,180.5155-180.51575V180.51551C1000.00006,80.81951,919.1806,0,819.48456,0h0Z"/>
                  </svg>