 <svg id="Layer_2" data-name="Layer 2" xmlns="http://www.w3.org/2000/svg" viewBox="0 0 1000.00006 999.99997">
                    <defs>
                      <style>
                        .cls-3 {
                          fill: rgb(208, 60, 80);
                          stroke: #fff;
                          stroke-miterlimit: 10;
                        }
                  
                        .cls-4 {
                          fill: #fff;
                          stroke-width: 0px;
                        }
                      </style>
                    </defs>
                    <rect class="cls-3" x="33.27271" y="42.37608" width="934.44818" height="934.44811" rx="110.33426" ry="110.33426"/>
                    <path class="cls-4" d="m819.48456,48.99999c35.12903,0,68.15552,13.68,92.99548,38.52,24.84009,24.84,38.52002,57.86652,38.52002,92.99551v638.96872c0,35.12927-13.67993,68.15576-38.52002,92.99573-24.83997,24.84003-57.86646,38.52002-92.99548,38.52002H180.51575c-35.12924,0-68.15576-13.67999-92.99576-38.52002-24.84-24.83997-38.51999-57.86646-38.51999-92.99573V180.5155c0-35.129,13.67999-68.1555,38.51999-92.99551s57.86652-38.52,92.99576-38.52h638.96881m0-49H180.51575C80.81952,0,0,80.8195,0,180.5155v638.96872c0,99.69623,80.81952,180.51575,180.51575,180.51575h638.96881c99.69592,0,180.5155-80.81952,180.5155-180.51575V180.5155C1000.00006,80.8195,919.1806,0,819.48456,0h0Z"/>
                  </svg>